# xmcd
#
# Track frame offsets: 
#        150
#        18263
#        36537
#        70237
#        109029
#        134381
#        168029
#        187047
#
# Disc length: 3009 seconds
#
# Revision: 0
# Processed by: cddbd v1.5PL3 Copyright (c) Steve Scherf et al.
# Submitted via: ExactAudioCopy v0.95a3
#
DISCID=690bbf08
DTITLE=Musiq Soulchild - Just Friends (Sunny)
DYEAR=2000
DGENRE=R&B
TTITLE0=Just Friends (Sunny) [Album Version Radio Edit]
TTITLE1=Just Friends (Sunny) [Masters At Work Radio Edit]
TTITLE2=Just Friends (Sunny) [E-Smoove Soul Revival]
TTITLE3=Just Friends (Sunny) [Masters At Work 12" Mix]
TTITLE4=Just Friends (Sunny) [Masters At Work Dub]
TTITLE5=Just Friends (Sunny) [E-Smoove Soul Revival Dub]
TTITLE6=Just Friends (Sunny) [Album Version Instrumental]
TTITLE7=Just Friends (Sunny) [Masters At Work Instrumental]
EXTD=
EXTT0=
EXTT1=
EXTT2=
EXTT3=
EXTT4=
EXTT5=
EXTT6=
EXTT7=
PLAYORDER=
